<svg xmlns="http://www.w3.org/2000/svg" xmlns:xlink="http://www.w3.org/1999/xlink" xmlns:lucid="lucid" width="1607.67" height="2170.67"><g transform="translate(-205.66666666666666 37.33333333333333)" lucid:page-tab-id="wPij4s8sZrccP"><path d="M0-1710h2486v5290H0z" fill="#fff"/><path d="M688 64c0 44.18-35.82 80-80 80s-80-35.82-80-80 35.82-80 80-80 80 35.82 80 80z" stroke="#000" stroke-width="2.67" fill="#fff"/><use xlink:href="#a" transform="matrix(1,0,0,1,548,-16) translate(29.7373046875 86.498779296875)"/><path d="M1600 1200c0 44.18-35.82 80-80 80s-80-35.82-80-80 35.82-80 80-80 80 35.82 80 80z" stroke="#000" stroke-width="2.67" fill="#fff"/><use xlink:href="#b" transform="matrix(1,0,0,1,1460,1120) translate(39.9423828125 86.498779296875)"/><path d="M609.6 904.7v34.5h3.2v18.38" stroke="#000" stroke-width="1.33" fill="none"/><path d="M610.25 904.7h-1.28v-.9l.44.42.85-.78z" stroke="#000" stroke-width=".05"/><path d="M612.8 972.5l-4.63-14.25h9.27z" stroke="#000" stroke-width="1.33"/><path d="M609.4 720l98.8 91.2-98.8 91.2-98.8-91.2z" stroke="#000" stroke-width="2.67" fill="#fff"/><use xlink:href="#c" transform="matrix(1,0,0,1,560.008,765.6) translate(44.22119140625 41.950439453125)"/><use xlink:href="#d" transform="matrix(1,0,0,1,560.008,765.6) translate(-23.35498046875 63.047119140625)"/><path d="M694 475l29.2.2V488h102.93" stroke="#000" stroke-width="1.33" fill="none"/><path d="M694.02 474.36v1.28h-.7v-1.3z" stroke="#000" stroke-width=".05"/><path d="M841.06 488l-14.26 4.63v-9.26z" stroke="#000" stroke-width="1.33"/><path d="M524 478.06a13.08 13.08 0 0 1 11.66-13l144.68-15.8A10.52 10.52 0 0 1 692 459.74v86.94a11.73 11.73 0 0 1-11.73 11.73H535.73A11.73 11.73 0 0 1 524 546.67z" stroke="#000" stroke-width="2.67" fill="#fff"/><use xlink:href="#e" transform="matrix(1,0,0,1,544,470.08) translate(13.30859375 40.450439453125)"/><use xlink:href="#f" transform="matrix(1,0,0,1,544,470.08) translate(99.9033203125 40.450439453125)"/><use xlink:href="#g" transform="matrix(1,0,0,1,544,470.08) translate(23.33740234375 61.547119140625)"/><path d="M532 990.93A14.93 14.93 0 0 1 546.93 976h130.14A14.93 14.93 0 0 1 692 990.93v130.14a14.93 14.93 0 0 1-14.93 14.93H546.93a14.93 14.93 0 0 1-14.93-14.93z" stroke="#000" stroke-width="2.67" fill="#fff"/><use xlink:href="#h" transform="matrix(1,0,0,1,552,976) translate(0.328125 75.950439453125)"/><use xlink:href="#i" transform="matrix(1,0,0,1,552,976) translate(53.12548828125 75.950439453125)"/><use xlink:href="#j" transform="matrix(1,0,0,1,552,976) translate(87.97119140625 75.950439453125)"/><use xlink:href="#k" transform="matrix(1,0,0,1,552,976) translate(37.2890625 97.047119140625)"/><path d="M320 761.2V504h185.58" stroke="#000" stroke-width="1.33" fill="none"/><path d="M320.64 761.87h-1.28v-.7h1.28z" stroke="#000" stroke-width=".05"/><path d="M520.5 504l-14.26 4.63v-9.27z" stroke="#000" stroke-width="1.33"/><path d="M272 763.2h112c8.84 0 16 21.5 16 48s-7.16 48-16 48H272l-32-48z" stroke="#000" stroke-width="2.67" fill="#fff"/><use xlink:href="#l" transform="matrix(1,0,0,1,280,787.2) translate(21.072509765625 15.2890625)"/><use xlink:href="#m" transform="matrix(1,0,0,1,280,787.2) translate(55.918212890625 15.2890625)"/><use xlink:href="#n" transform="matrix(1,0,0,1,280,787.2) translate(12.620849609375 36.3857421875)"/><use xlink:href="#o" transform="matrix(1,0,0,1,280,787.2) translate(28.4619140625 57.482421875)"/><path d="M608 146l1.22 108.9" stroke="#000" stroke-width="1.33" fill="none"/><path d="M607.98 145.33h.66v.68l-1.27.02v-.7z" stroke="#000" stroke-width=".05"/><path d="M609.38 269.84l-4.8-14.2 9.28-.1z" stroke="#000" stroke-width="1.33"/><path d="M609.72 560.4l-.1 140.88" stroke="#000" stroke-width="1.33" fill="none"/><path d="M610.36 560.42h-1.28v-.7h1.28z" stroke="#000" stroke-width=".05"/><path d="M609.6 716.2L605 701.96h9.28z" stroke="#000" stroke-width="1.33"/><path d="M442.84 811.84h-24.42v-1.28h24.42zm65.14 0h-40.85v-1.28h40.85z" stroke="#000" stroke-width=".05"/><path d="M508.64 811.2l.7.64h-1.38v-1.28h1.38z"/><path stroke="#000" stroke-width=".05"/><path d="M417.76 815.84l-14.27-4.64 14.26-4.63z"/><path d="M418.4 816.72l-17-5.52 17-5.52zm-12.83-5.52l11.55 3.75v-7.5z" stroke="#000" stroke-width=".05"/><use xlink:href="#p" transform="matrix(1,0,0,1,442.84375124311475,802.409716796875) translate(0 15.2890625)"/><path d="M693.74 1312.65l-.94 4.15H1008v18.1" stroke="#000" stroke-width="1.33" fill="none"/><path d="M695.17 1309.2l-.8 3.6-1.06-.23.6-.57-.55-.54.57-2.53z" stroke="#000" stroke-width=".05"/><path d="M1007.98 1349.84l-4.63-14.27h9.27z" stroke="#000" stroke-width="1.33"/><path d="M612 1232l80 80-80 80-80-80z" stroke="#000" stroke-width="2.67" fill="#fff"/><use xlink:href="#q" transform="matrix(1,0,0,1,572,1272) translate(29.7021484375 35.950439453125)"/><use xlink:href="#r" transform="matrix(1,0,0,1,572,1272) translate(39.2021484375 35.950439453125)"/><use xlink:href="#s" transform="matrix(1,0,0,1,572,1272) translate(-6.47021484375 57.047119140625)"/><path d="M612.8 1138v75.84" stroke="#000" stroke-width="1.33" fill="none"/><path d="M613.46 1138.02h-1.3v-.7h1.3z" stroke="#000" stroke-width=".05"/><path d="M612.8 1228.77l-4.62-14.27h9.27z" stroke="#000" stroke-width="1.33"/><path d="M238.7 2032.67L240 2064h-32V1016l305.58-1.02" stroke="#000" stroke-width="1.33" fill="none"/><path d="M238.67 2032.68l-.62.03-.15-3.67.77-.03z" stroke="#000" stroke-width=".05"/><path d="M528.5 1014.93l-14.24 4.68-.03-9.26z" stroke="#000" stroke-width="1.33"/><path d="M240 1966.93a14.93 14.93 0 0 1 14.93-14.93h130.14a14.93 14.93 0 0 1 14.93 14.93v130.14a14.93 14.93 0 0 1-14.93 14.93H254.93a14.93 14.93 0 0 1-14.93-14.93z" stroke="#000" stroke-width="2.67" fill="#fff"/><use xlink:href="#t" transform="matrix(1,0,0,1,260,1952) translate(13.5390625 75.950439453125)"/><use xlink:href="#u" transform="matrix(1,0,0,1,260,1952) translate(102.23974609375 75.950439453125)"/><use xlink:href="#v" transform="matrix(1,0,0,1,260,1952) translate(24.6162109375 97.047119140625)"/><use xlink:href="#w" transform="matrix(1,0,0,1,260,1952) translate(63.68310546875 97.047119140625)"/><path d="M613.44 1885.58h-1.3l.02-75.2h1.28zm-3.13-185.82l-.05 93.05h-1.28l.06-93.04z" stroke="#000" stroke-width=".05"/><path d="M610.32 1699.78h-1.3v-.77l.4.3.9-.72z"/><path stroke="#000" stroke-width=".05"/><path d="M617.43 1886.24l-4.63 14.27-4.64-14.26z"/><path d="M618.32 1885.6l-5.52 17-5.52-17zm-5.52 12.83l3.75-11.55h-7.5z" stroke="#000" stroke-width=".05"/><use xlink:href="#x" transform="matrix(1,0,0,1,594.9835059846171,1792.809716796875) translate(0 15.2890625)"/><path d="M861.44 1661.58h-1.28v-67.34h-4.44v-1.28h5.72zm-30-67.33l-89.48.03V1593l89.47-.03z" stroke="#000" stroke-width=".05"/><path d="M741.97 1594.28h-1.48l1.47-1.2z"/><path stroke="#000" stroke-width=".05"/><path d="M860.8 1676.5l-4.63-14.26h9.26z"/><path d="M860.8 1678.6l-5.52-17h11.04zm-3.75-15.7l3.75 11.53 3.75-11.55z" stroke="#000" stroke-width=".05"/><use xlink:href="#p" transform="matrix(1,0,0,1,831.4340824797639,1584.8157640390841) translate(0 15.2890625)"/><path d="M609.4 1488l130.8 104.8-130.8 104.8-130.8-104.8z" stroke="#000" stroke-width="2.67" fill="#fff"/><use xlink:href="#y" transform="matrix(1,0,0,1,544.008,1540.4) translate(5.294677734375 48.450439453125)"/><use xlink:href="#z" transform="matrix(1,0,0,1,544.008,1540.4) translate(103.513916015625 48.450439453125)"/><use xlink:href="#A" transform="matrix(1,0,0,1,544.008,1540.4) translate(-39.561279296875 69.547119140625)"/><path d="M610.3 1469.4H609l-.03-20.6h1.3zm3.15-75.66v37.47h-1.3l.02-37.46z" stroke="#000" stroke-width=".05"/><path d="M613.45 1393.76h-1.28l1.28-1.33z"/><path stroke="#000" stroke-width=".05"/><path d="M609.67 1484.35L605 1470.1l9.28-.03z"/><path d="M609.67 1486.42l-5.54-16.97 11.03-.02zm-3.77-15.7l3.77 11.55 3.73-11.55z" stroke="#000" stroke-width=".05"/><use xlink:href="#x" transform="matrix(1,0,0,1,595.9126979193595,1431.209716796875) translate(0 15.2890625)"/><path d="M860.8 1840.4V2072l-442.38.64" stroke="#000" stroke-width="1.33" fill="none"/><path d="M861.44 1840.42h-1.28v-.7h1.28z" stroke="#000" stroke-width=".05"/><path d="M403.5 2072.66l14.25-4.65v9.28z" stroke="#000" stroke-width="1.33"/><path d="M752 1694.93a14.93 14.93 0 0 1 14.93-14.93h187.74a14.93 14.93 0 0 1 14.93 14.93v128.54a14.93 14.93 0 0 1-14.93 14.93H766.93a14.93 14.93 0 0 1-14.93-14.93z" stroke="#000" stroke-width="2.67" fill="#fff"/><use xlink:href="#B" transform="matrix(1,0,0,1,772,1680) translate(3.467529296875 75.450439453125)"/><use xlink:href="#C" transform="matrix(1,0,0,1,772,1680) translate(23.25146484375 96.547119140625)"/><use xlink:href="#D" transform="matrix(1,0,0,1,772,1680) translate(39.6259765625 96.547119140625)"/><path d="M612.8 2034v28.9" stroke="#000" stroke-width="1.33" fill="none"/><path d="M613.44 2034.02h-1.3v-.7h1.3z" stroke="#000" stroke-width=".05"/><path d="M612.8 2077.84l-4.64-14.26h9.27z" stroke="#000" stroke-width="1.33"/><path d="M516.2 1918.93a14.93 14.93 0 0 1 14.94-14.93h162.13a14.93 14.93 0 0 1 14.94 14.93v98.14a14.93 14.93 0 0 1-14.93 14.93H531.14a14.93 14.93 0 0 1-14.93-14.93z" stroke="#000" stroke-width="2.67" fill="#fff"/><use xlink:href="#E" transform="matrix(1,0,0,1,536.208,1904) translate(39.56787109375 49.402099609375)"/><use xlink:href="#F" transform="matrix(1,0,0,1,536.208,1904) translate(23.9912109375 70.498779296875)"/><use xlink:href="#G" transform="matrix(1,0,0,1,536.208,1904) translate(116.9130859375 70.498779296875)"/><use xlink:href="#H" transform="matrix(1,0,0,1,536.208,1904) translate(9.462890625 91.595458984375)"/><path d="M538.6 254.93A14.93 14.93 0 0 1 553.5 240h116.94a14.93 14.93 0 0 1 14.93 14.93v120.54a14.93 14.93 0 0 1-14.94 14.93H553.52a14.93 14.93 0 0 1-14.93-14.93z" stroke="#000" stroke-width="2.67" fill="#fff"/><use xlink:href="#I" transform="matrix(1,0,0,1,558.592,240) translate(36.072509765625 60.902099609375)"/><use xlink:href="#J" transform="matrix(1,0,0,1,558.592,240) translate(13.91357421875 81.998779296875)"/><use xlink:href="#K" transform="matrix(1,0,0,1,558.592,240) translate(22.082275390625 103.095458984375)"/><use xlink:href="#L" transform="matrix(1,0,0,1,558.592,240) translate(44.783935546875 103.095458984375)"/><path d="M529.6 604.37A16.66 16.66 0 0 1 545.7 592h143.8a9.83 9.83 0 0 1 9.5 12.37l-12.6 47.26A16.66 16.66 0 0 1 670.3 664H526.5a9.83 9.83 0 0 1-9.5-12.37z" stroke="#000" stroke-width="2.67" fill="#fff"/><use xlink:href="#M" transform="matrix(1,0,0,1,560.8480000000001,592) translate(21.630126953125 21.402099609375)"/><use xlink:href="#N" transform="matrix(1,0,0,1,560.8480000000001,592) translate(14.245361328125 42.498779296875)"/><use xlink:href="#O" transform="matrix(1,0,0,1,560.8480000000001,592) translate(25.860595703125 63.595458984375)"/><path d="M612.9 392.4l-.1 30h-1.6v26.06" stroke="#000" stroke-width="1.33" fill="none"/><path d="M613.53 392.42h-1.28v-.7h1.28z" stroke="#000" stroke-width=".05"/><path d="M611.2 463.4l-4.64-14.27h9.27z" stroke="#000" stroke-width="1.33"/><path d="M932.36 1308.37a16.66 16.66 0 0 1 16.1-12.37h149.73a9.83 9.83 0 0 1 9.5 12.37l-23.28 87.26a16.66 16.66 0 0 1-16.1 12.37H918.6a9.83 9.83 0 0 1-9.5-12.37z" stroke="#000" stroke-width="2.67" fill="#fff"/><use xlink:href="#P" transform="matrix(1,0,0,1,957.092,1296) translate(19.126708984375 20.305419921875)"/><use xlink:href="#Q" transform="matrix(1,0,0,1,957.092,1296) translate(61.700439453125 20.305419921875)"/><use xlink:href="#R" transform="matrix(1,0,0,1,957.092,1296) translate(1.880126953125 41.402099609375)"/><use xlink:href="#S" transform="matrix(1,0,0,1,957.092,1296) translate(49.398681640625 41.402099609375)"/><use xlink:href="#T" transform="matrix(1,0,0,1,957.092,1296) translate(19.646240234375 62.498779296875)"/><use xlink:href="#U" transform="matrix(1,0,0,1,957.092,1296) translate(27.22119140625 83.595458984375)"/><use xlink:href="#V" transform="matrix(1,0,0,1,957.092,1296) translate(70.5 83.595458984375)"/><use xlink:href="#W" transform="matrix(1,0,0,1,957.092,1296) translate(28.8076171875 104.692138671875)"/><path d="M1248 1360l80 80-80 80-80-80z" stroke="#000" stroke-width="2.67" fill="#fff"/><use xlink:href="#X" transform="matrix(1,0,0,1,1208,1400) translate(31.5576171875 25.402099609375)"/><use xlink:href="#Y" transform="matrix(1,0,0,1,1208,1400) translate(8.146240234375 46.498779296875)"/><use xlink:href="#Z" transform="matrix(1,0,0,1,1208,1400) translate(21 67.595458984375)"/><path d="M1248 1136l80 80-80 80-80-80z" stroke="#000" stroke-width="2.67" fill="#fff"/><use xlink:href="#aa" transform="matrix(1,0,0,1,1208,1176) translate(6.3974609375 35.950439453125)"/><use xlink:href="#ab" transform="matrix(1,0,0,1,1208,1176) translate(28.56103515625 35.950439453125)"/><use xlink:href="#Z" transform="matrix(1,0,0,1,1208,1176) translate(21 57.047119140625)"/><path d="M1008.65 1352H1248v-37.02M1008.66 1352H1005" stroke="#000" stroke-width="1.33" fill="none"/><path d="M1248 1300.04l4.63 14.27h-9.27z" stroke="#000" stroke-width="1.33"/><path d="M1007.98 1351.33l.02-23.33h240v13.02M1007.98 1351.32v3.68" stroke="#000" stroke-width="1.33" fill="none"/><path d="M1248 1355.96l-4.63-14.27h9.27z" stroke="#000" stroke-width="1.33"/><path d="M1330.55 1216l92.6-.04" stroke="#000" stroke-width="1.33" fill="none"/><path d="M1330.57 1216.64h-1.33l.65-.64-.66-.64h1.33z" stroke="#000" stroke-width=".05"/><path d="M1438.07 1215.95l-14.26 4.65v-9.27z" stroke="#000" stroke-width="1.33"/><path d="M816 208h256v200H816z" fill="#fff" fill-opacity="0"/><path d="M816 229.97c42.67 21.96 85.33 21.96 128 0 42.67-21.97 85.33-21.97 128 0v156.07c-42.67-21.97-85.33-21.97-128 0-42.67 21.96-85.33 21.96-128 0z" stroke="#000" stroke-width="2.67" fill="#fff"/><g><use xlink:href="#ac" transform="matrix(1,0,0,1,816,208) translate(62.525146484375 59.21630859375)"/><use xlink:href="#ad" transform="matrix(1,0,0,1,816,208) translate(117.437744140625 59.21630859375)"/><use xlink:href="#ae" transform="matrix(1,0,0,1,816,208) translate(142.774169921875 59.21630859375)"/><use xlink:href="#ac" transform="matrix(1,0,0,1,816,208) translate(39.294677734375 80.31298828125)"/><use xlink:href="#ad" transform="matrix(1,0,0,1,816,208) translate(94.207275390625 80.31298828125)"/><use xlink:href="#af" transform="matrix(1,0,0,1,816,208) translate(119.543701171875 80.31298828125)"/><use xlink:href="#ag" transform="matrix(1,0,0,1,816,208) translate(175.523193359375 80.31298828125)"/><use xlink:href="#ah" transform="matrix(1,0,0,1,816,208) translate(17.632080078125 101.40966796875)"/><use xlink:href="#ai" transform="matrix(1,0,0,1,816,208) translate(173.946044921875 101.40966796875)"/><use xlink:href="#aj" transform="matrix(1,0,0,1,816,208) translate(30.185546875 126.52978515625)"/><use xlink:href="#ak" transform="matrix(1,0,0,1,816,208) translate(72.42529296875 126.52978515625)"/><use xlink:href="#al" transform="matrix(1,0,0,1,816,208) translate(135.77099609375 126.52978515625)"/><use xlink:href="#am" transform="matrix(1,0,0,1,816,208) translate(211.798828125 126.52978515625)"/><use xlink:href="#an" transform="matrix(1,0,0,1,816,208) translate(100.66015625 153.17822265625)"/></g><path d="M687.4 315.2h63v-6.4h47.18" stroke="#000" stroke-width="1.33" fill="none"/><path d="M687.4 315.84h-.67v-1.28h.68z" stroke="#000" stroke-width=".05"/><path d="M812.5 308.8l-14.26 4.64v-9.27z" stroke="#000" stroke-width="1.33"/><path d="M1360.64 1440.64h-30.1v-1.28h28.82V64.64H706.42v-1.28h654.22z" stroke="#000" stroke-width=".05"/><path d="M1330.57 1440.64h-1.33l.65-.64-.66-.64h1.33z"/><path d="M1330.57 1440.64h-1.33l.65-.64-.66-.64h1.33z" stroke="#000" stroke-width=".05"/><path d="M705.76 68.64L691.5 64l14.26-4.63z"/><path d="M706.4 69.52l-17-5.52 17-5.52zM693.57 64l11.54 3.75v-7.5zM1168.64 488.64h-30.1v-1.28h28.82V208.64H685.4l-1.56 17.6-1.28-.12 1.65-18.76h484.44z" stroke="#000" stroke-width=".05"/><path d="M1138.57 488.64h-1.33l.65-.64-.66-.64h1.33z"/><path d="M1138.57 488.64h-1.33l.65-.64-.66-.64h1.33z" stroke="#000" stroke-width=".05"/><path d="M687.76 227.25l-5.87 13.8-3.38-14.6z"/><path d="M688.7 226.7l-7 16.42-4-17.4zm-6.63 12.3l4.75-11.2-7.47-.65z" stroke="#000" stroke-width=".05"/><g><use xlink:href="#ao" transform="matrix(1,0,0,1,1063.7868992233412,199.209716796875) translate(0 15.2890625)"/></g><path d="M1056 408l80 80-80 80-80-80z" stroke="#000" stroke-width="2.67" fill="#fff"/><g><use xlink:href="#X" transform="matrix(1,0,0,1,1016,448) translate(31.5576171875 25.402099609375)"/><use xlink:href="#Y" transform="matrix(1,0,0,1,1016,448) translate(8.146240234375 46.498779296875)"/><use xlink:href="#Z" transform="matrix(1,0,0,1,1016,448) translate(21 67.595458984375)"/></g><path d="M843.9 488H976h-32 13.02M843.9 488h-3.68" stroke="#000" stroke-width="1.33" fill="none"/><path d="M971.96 488l-14.27 4.63v-9.26z" stroke="#000" stroke-width="1.33"/><path d="M766.78 444.37a16.66 16.66 0 0 1 16.1-12.37H932.6a9.83 9.83 0 0 1 9.5 12.37l-23.26 87.26a16.66 16.66 0 0 1-16.1 12.37H753a9.83 9.83 0 0 1-9.5-12.37z" stroke="#000" stroke-width="2.67" fill="#fff"/><g><use xlink:href="#R" transform="matrix(1,0,0,1,791.508,432) translate(1.880126953125 30.853759765625)"/><use xlink:href="#S" transform="matrix(1,0,0,1,791.508,432) translate(49.398681640625 30.853759765625)"/><use xlink:href="#T" transform="matrix(1,0,0,1,791.508,432) translate(19.646240234375 51.950439453125)"/><use xlink:href="#U" transform="matrix(1,0,0,1,791.508,432) translate(27.22119140625 73.047119140625)"/><use xlink:href="#V" transform="matrix(1,0,0,1,791.508,432) translate(70.5 73.047119140625)"/><use xlink:href="#W" transform="matrix(1,0,0,1,791.508,432) translate(28.8076171875 94.143798828125)"/></g><path d="M1536 288h256v200h-256z" fill="#fff" fill-opacity="0"/><path d="M1536 309.96c42.67 21.97 85.33 21.97 128 0 42.67-21.96 85.33-21.96 128 0v156.08c-42.67-21.97-85.33-21.97-128 0-42.67 21.96-85.33 21.96-128 0z" stroke="#000" stroke-width="2.67" fill="#fff"/><g><use xlink:href="#ap" transform="matrix(1,0,0,1,1536,288) translate(10.2705078125 85.402099609375)"/><use xlink:href="#aq" transform="matrix(1,0,0,1,1536,288) translate(69.39501953125 85.402099609375)"/><use xlink:href="#ar" transform="matrix(1,0,0,1,1536,288) translate(127.47119140625 85.402099609375)"/><use xlink:href="#as" transform="matrix(1,0,0,1,1536,288) translate(173.94140625 85.402099609375)"/><use xlink:href="#at" transform="matrix(1,0,0,1,1536,288) translate(205.6142578125 85.402099609375)"/><use xlink:href="#au" transform="matrix(1,0,0,1,1536,288) translate(20.322509765625 106.498779296875)"/><use xlink:href="#av" transform="matrix(1,0,0,1,1536,288) translate(108.995361328125 106.498779296875)"/><use xlink:href="#aw" transform="matrix(1,0,0,1,1536,288) translate(173.398681640625 106.498779296875)"/><use xlink:href="#ax" transform="matrix(1,0,0,1,1536,288) translate(87.89404296875 127.595458984375)"/></g><defs><path d="M692-1286c-195 0-347 51-347 223 0 101 58 144 134 179 135 62 487 105 623 191 97 62 170 147 170 304 0 130-50 231-152 302S875 20 690 20C347 20 148-99 93-338l185-37c46 178 190 245 419 246 213 0 386-61 386-250 0-223-244-222-431-271-182-48-288-69-390-156-64-54-103-133-103-247 0-121 47-214 139-279s224-98 396-98c318 0 471 80 545 324l-188 33c-44-155-158-213-359-213" id="ay"/><path d="M720-1253V0H530v-1253H46v-156h1158v156H720" id="az"/><path d="M1167 0l-161-412H364L202 0H4l575-1409h217L1362 0h-195zM685-1265c-69 226-179 482-263 704h527c-89-236-186-456-264-704" id="aA"/><path d="M1328-1006c0 221-145 368-344 399L1384 0h-220L798-585H359V0H168v-1409h663c292-4 497 130 497 403zM820-736c188 2 316-89 316-268s-133-252-324-252H359v520h461" id="aB"/><g id="a"><use transform="matrix(0.00927734375,0,0,0.00927734375,0,0)" xlink:href="#ay"/><use transform="matrix(0.00927734375,0,0,0.00927734375,12.6728515625,0)" xlink:href="#az"/><use transform="matrix(0.00927734375,0,0,0.00927734375,22.86865234375,0)" xlink:href="#aA"/><use transform="matrix(0.00927734375,0,0,0.00927734375,35.54150390625,0)" xlink:href="#aB"/><use transform="matrix(0.00927734375,0,0,0.00927734375,48.91943359375,0)" xlink:href="#az"/></g><path d="M168 0v-1409h1069v156H359v452h818v154H359v491h919V0H168" id="aC"/><path d="M1082 0L328-1200c20 384 6 801 10 1200H168v-1409h222l762 1208c-25-412-6-786-12-1208h172V0h-230" id="aD"/><path d="M634-1409c461-4 751 239 747 690-4 441-249 719-686 719H168v-1409h466zm39 1256c337-8 514-222 516-566 2-353-203-539-559-537H359v1103h314" id="aE"/><g id="b"><use transform="matrix(0.00927734375,0,0,0.00927734375,0,0)" xlink:href="#aC"/><use transform="matrix(0.00927734375,0,0,0.00927734375,12.6728515625,0)" xlink:href="#aD"/><use transform="matrix(0.00927734375,0,0,0.00927734375,26.39404296875,0)" xlink:href="#aE"/></g><path d="M189 0v-1409h191V0H189" id="aF"/><path d="M492-1341c-103 3-130 49-131 162v97h211v131H361V0H181v-951H29v-131h152v-122c0-192 78-276 264-278 50 0 92 4 127 12v137c-30-5-57-8-80-8" id="aG"/><g id="c"><use transform="matrix(0.00927734375,0,0,0.00927734375,0,0)" xlink:href="#aF"/><use transform="matrix(0.00927734375,0,0,0.00927734375,5.27880859375,0)" xlink:href="#aG"/></g><path d="M87-548c0-338 159-553 484-554 325-2 484 204 477 599H276c-1 227 88 385 302 388 146 2 246-65 283-166l158 45C954-65 807 20 578 20 240 20 87-193 87-548zm775-93c-19-206-90-328-294-328-185 0-285 140-290 328h584" id="aH"/><path d="M801 0L510-444 217 0H23l385-556-367-526h199l270 421 268-421h201L612-558 1002 0H801" id="aI"/><path d="M336-268c2 98 22 139 114 141 24 0 59-5 104-14V-8C495 8 434 16 372 16c-144 0-216-82-216-245v-722H31v-131h132l53-242h120v242h200v131H336v683" id="aJ"/><path d="M908-743c202 21 350 139 350 346 0 273-224 397-518 397H168v-1409h512c331 0 496 114 496 342 0 180-112 291-268 324zm-228-67c187 0 301-60 304-234 6-277-360-200-625-212v446h321zm50 657c212 0 335-66 335-259 0-166-117-249-350-249H359v508h371" id="aK"/><path d="M571-1102c350 0 480 196 482 560 2 357-151 562-488 562C233 20 86-198 86-542c0-373 162-560 485-560zm-8 989c244 0 301-164 301-429 0-266-49-427-290-427-239 0-299 165-299 427 0 252 61 429 288 429" id="aL"/><path d="M513-963c-139 1-238 29-238 149 0 72 41 100 95 127 55 27 348 94 404 125 101 56 176 118 176 263C950-73 758 21 511 20 254 19 107-55 57-254l159-31c34 123 133 168 295 168 156 0 264-34 264-168 0-156-183-165-315-204-171-51-245-68-323-172-26-35-37-82-37-135 0-220 172-304 413-303 232 1 379 74 418 265l-162 20c-23-104-122-150-256-149" id="aM"/><path d="M359-1253v524h786v158H359V0H168v-1409h1001v156H359" id="aN"/><path d="M137-1312v-172h180v172H137zM137 0v-1082h180V0H137" id="aO"/><path d="M138 0v-1484h180V0H138" id="aP"/><path d="M835 0c-5-29-11-137-10-174h-4C759-45 663 20 484 20 177 20 86-201 86-536c0-377 133-566 398-566 178 1 273 67 339 188-4-187-1-380-2-570h180v1261c0 113 2 187 6 223H835zm-14-554c0-255-58-415-289-415-91 0-151 37-196 101-76 109-77 543-1 651 44 63 105 98 195 98 235 0 291-173 291-435" id="aQ"/><path d="M496 424C268 175 127-92 127-532c0-438 143-704 369-952h174c-222 249-362 524-362 954 0 431 138 703 362 954H496" id="aR"/><path d="M186-1484c228 249 369 516 369 956 0 438-143 704-369 952H12C235 172 374-97 374-530c0-431-140-704-362-954h174" id="aS"/><g id="d"><use transform="matrix(0.00927734375,0,0,0.00927734375,0,0)" xlink:href="#az"/><use transform="matrix(0.00927734375,0,0,0.00927734375,9.5,0)" xlink:href="#aH"/><use transform="matrix(0.00927734375,0,0,0.00927734375,20.06689453125,0)" xlink:href="#aI"/><use transform="matrix(0.00927734375,0,0,0.00927734375,29.56689453125,0)" xlink:href="#aJ"/><use transform="matrix(0.00927734375,0,0,0.00927734375,34.845703125,0)" xlink:href="#aK"/><use transform="matrix(0.00927734375,0,0,0.00927734375,47.5185546875,0)" xlink:href="#aL"/><use transform="matrix(0.00927734375,0,0,0.00927734375,58.08544921875,0)" xlink:href="#aI"/><use transform="matrix(0.00927734375,0,0,0.00927734375,67.58544921875,0)" xlink:href="#aH"/><use transform="matrix(0.00927734375,0,0,0.00927734375,78.15234375,0)" xlink:href="#aM"/><use transform="matrix(0.00927734375,0,0,0.00927734375,87.65234375,0)" xlink:href="#aN"/><use transform="matrix(0.00927734375,0,0,0.00927734375,99.25830078125,0)" xlink:href="#aO"/><use transform="matrix(0.00927734375,0,0,0.00927734375,103.4794921875,0)" xlink:href="#aP"/><use transform="matrix(0.00927734375,0,0,0.00927734375,107.70068359375,0)" xlink:href="#aP"/><use transform="matrix(0.00927734375,0,0,0.00927734375,111.921875,0)" xlink:href="#aH"/><use transform="matrix(0.00927734375,0,0,0.00927734375,122.48876953125,0)" xlink:href="#aQ"/><use transform="matrix(0.00927734375,0,0,0.00927734375,133.0556640625,0)" xlink:href="#aR"/><use transform="matrix(0.00927734375,0,0,0.00927734375,139.3828125,0)" xlink:href="#aS"/></g><path d="M1321-530c-7 359-228 550-590 550-350 0-573-184-573-532v-897h191v881c-2 253 132 393 381 393 255 0 401-146 401-406v-868h190v879" id="aT"/><path d="M318-861c55-157 83-241 257-241 24 0 48 3 73 10v165c-24-7-56-10-96-10-75 0-132 33-171 97s-59 156-59 276V0H142c-3-364 6-725-6-1082h170c5 123 8 196 8 221h4" id="aU"/><path d="M663-1102c251 0 343 119 343 381V0H825v-686c0-183-40-279-223-277-184 2-280 141-280 336V0H142c-3-345 6-754-6-1082h170c5 68 6 94 8 185h3c76-134 157-205 346-205" id="aV"/><path d="M320-908c63-128 152-193 335-193 133 0 233 45 299 134s99 230 99 421c0 377-133 566-398 566-167 0-279-63-336-188h-5c8 141 2 428 4 593H138V-861c0-111-2-185-6-221h174c5 33 9 134 10 174h4zm-2 380c0 254 57 415 289 415 89 0 149-37 195-99 76-105 79-547 1-653-45-62-105-97-194-97-243 1-291 184-291 434" id="aW"/><path d="M476 20C225 20 133-99 133-361v-721h181v686c0 183 40 279 223 277 184-2 280-141 280-336v-627h180c3 345-6 754 6 1082H833c-5-68-6-94-8-185h-3C746-51 665 20 476 20" id="aX"/><g id="e"><use transform="matrix(0.00927734375,0,0,0.00927734375,0,0)" xlink:href="#aT"/><use transform="matrix(0.00927734375,0,0,0.00927734375,13.72119140625,0)" xlink:href="#aM"/><use transform="matrix(0.00927734375,0,0,0.00927734375,23.22119140625,0)" xlink:href="#aH"/><use transform="matrix(0.00927734375,0,0,0.00927734375,33.7880859375,0)" xlink:href="#aU"/><use transform="matrix(0.00927734375,0,0,0.00927734375,40.115234375,0)" xlink:href="#aO"/><use transform="matrix(0.00927734375,0,0,0.00927734375,44.33642578125,0)" xlink:href="#aV"/><use transform="matrix(0.00927734375,0,0,0.00927734375,54.9033203125,0)" xlink:href="#aW"/><use transform="matrix(0.00927734375,0,0,0.00927734375,65.47021484375,0)" xlink:href="#aX"/><use transform="matrix(0.00927734375,0,0,0.00927734375,76.037109375,0)" xlink:href="#aJ"/></g><g id="f"><use transform="matrix(0.00927734375,0,0,0.00927734375,0,0)" xlink:href="#aO"/><use transform="matrix(0.00927734375,0,0,0.00927734375,4.22119140625,0)" xlink:href="#aV"/></g><path d="M655-1102c307 0 398 221 398 556 0 377-133 566-398 566-180 0-272-66-339-188 1 22-7 151-10 168H132c4-36 6-110 6-223v-1261h180c-2 196 4 384-4 576h4c62-129 158-194 337-194zM318-529c0 254 57 416 289 416 91 0 152-37 197-101 76-109 76-543 0-651-44-63-105-98-195-98-236 0-291 169-291 434" id="aY"/><g id="g"><use transform="matrix(0.00927734375,0,0,0.00927734375,0,0)" xlink:href="#aJ"/><use transform="matrix(0.00927734375,0,0,0.00927734375,5.27880859375,0)" xlink:href="#aH"/><use transform="matrix(0.00927734375,0,0,0.00927734375,15.845703125,0)" xlink:href="#aI"/><use transform="matrix(0.00927734375,0,0,0.00927734375,25.345703125,0)" xlink:href="#aJ"/><use transform="matrix(0.00927734375,0,0,0.00927734375,30.62451171875,0)" xlink:href="#aY"/><use transform="matrix(0.00927734375,0,0,0.00927734375,41.19140625,0)" xlink:href="#aL"/><use transform="matrix(0.00927734375,0,0,0.00927734375,51.75830078125,0)" xlink:href="#aI"/><use transform="matrix(0.00927734375,0,0,0.00927734375,61.25830078125,0)" xlink:href="#aH"/><use transform="matrix(0.00927734375,0,0,0.00927734375,71.8251953125,0)" xlink:href="#aM"/></g><path d="M779-765c-19-119-93-196-233-196-95 0-164 32-207 95s-64 170-64 320c0 144 23 251 68 320s114 104 205 104c139 0 224-79 240-212l182 12C946-119 781 22 553 20 230 17 87-201 87-542c0-338 145-557 464-560 225-1 380 129 413 323" id="aZ"/><path d="M322-1484c-2 195 6 405-8 587h3c73-129 159-205 346-205 250 0 342 118 343 381V0H825v-686c3-190-43-277-223-277-176-1-280 140-280 325V0H142v-1484h180" id="ba"/><g id="h"><use transform="matrix(0.00927734375,0,0,0.00927734375,0,0)" xlink:href="#aN"/><use transform="matrix(0.00927734375,0,0,0.00927734375,11.60595703125,0)" xlink:href="#aH"/><use transform="matrix(0.00927734375,0,0,0.00927734375,22.1728515625,0)" xlink:href="#aJ"/><use transform="matrix(0.00927734375,0,0,0.00927734375,27.45166015625,0)" xlink:href="#aZ"/><use transform="matrix(0.00927734375,0,0,0.00927734375,36.95166015625,0)" xlink:href="#ba"/></g><path d="M816 0L450-494 318-385V0H138v-1484h180v927l475-525h211L565-617 1027 0H816" id="bb"/><path d="M350 384c-71 46-190 48-283 30V279c25 4 53 6 84 6 123 0 227-124 283-290L5-1082h192c109 293 229 581 326 886 105-293 205-591 307-886h190L604 0c-45 115-86 202-125 258s-83 96-129 126" id="bc"/><g id="i"><use transform="matrix(0.00927734375,0,0,0.00927734375,0,0)" xlink:href="#bb"/><use transform="matrix(0.00927734375,0,0,0.00927734375,9.5,0)" xlink:href="#aH"/><use transform="matrix(0.00927734375,0,0,0.00927734375,20.06689453125,0)" xlink:href="#bc"/></g><path d="M797-207C713-60 620 16 414 20 203 24 88-98 87-302c0-112 37-198 111-258s192-93 356-96l243-4c10-201-43-307-232-305-154 2-223 43-242 172l-188-17c31-195 175-292 434-292s410 116 410 364v466c3 95 12 159 101 161 17 0 37-2 59-7V-6c-45 11-92 16-139 16-143-2-188-76-197-217h-6zm-525-92c-1 116 66 187 183 184 230-7 361-164 342-419-124 5-305-2-389 30-83 32-136 92-136 205" id="bd"/><g id="j"><use transform="matrix(0.00927734375,0,0,0.00927734375,0,0)" xlink:href="#bd"/><use transform="matrix(0.00927734375,0,0,0.00927734375,10.56689453125,0)" xlink:href="#aV"/><use transform="matrix(0.00927734375,0,0,0.00927734375,21.1337890625,0)" xlink:href="#aQ"/></g><path d="M613 0H400L7-1082h192c109 337 207 579 307 941 97-323 214-627 320-941h191" id="be"/><g id="k"><use transform="matrix(0.00927734375,0,0,0.00927734375,0,0)" xlink:href="#be"/><use transform="matrix(0.00927734375,0,0,0.00927734375,9.5,0)" xlink:href="#bd"/><use transform="matrix(0.00927734375,0,0,0.00927734375,20.06689453125,0)" xlink:href="#aP"/><use transform="matrix(0.00927734375,0,0,0.00927734375,24.2880859375,0)" xlink:href="#aX"/><use transform="matrix(0.00927734375,0,0,0.00927734375,34.85498046875,0)" xlink:href="#aH"/></g><g id="l"><use transform="matrix(0.00927734375,0,0,0.00927734375,0,0)" xlink:href="#aD"/><use transform="matrix(0.00927734375,0,0,0.00927734375,13.72119140625,0)" xlink:href="#aL"/><use transform="matrix(0.00927734375,0,0,0.00927734375,24.2880859375,0)" xlink:href="#aJ"/></g><g id="m"><use transform="matrix(0.00927734375,0,0,0.00927734375,0,0)" xlink:href="#bd"/><use transform="matrix(0.00927734375,0,0,0.00927734375,10.56689453125,0)" xlink:href="#aP"/><use transform="matrix(0.00927734375,0,0,0.00927734375,14.7880859375,0)" xlink:href="#aP"/></g><path d="M-31 407V277h1193v130H-31" id="bf"/><g id="n"><use transform="matrix(0.00927734375,0,0,0.00927734375,0,0)" xlink:href="#aJ"/><use transform="matrix(0.00927734375,0,0,0.00927734375,5.27880859375,0)" xlink:href="#aI"/><use transform="matrix(0.00927734375,0,0,0.00927734375,14.77880859375,0)" xlink:href="#aJ"/><use transform="matrix(0.00927734375,0,0,0.00927734375,20.0576171875,0)" xlink:href="#bf"/><use transform="matrix(0.00927734375,0,0,0.00927734375,30.62451171875,0)" xlink:href="#aY"/><use transform="matrix(0.00927734375,0,0,0.00927734375,41.19140625,0)" xlink:href="#aL"/><use transform="matrix(0.00927734375,0,0,0.00927734375,51.75830078125,0)" xlink:href="#aI"/><use transform="matrix(0.00927734375,0,0,0.00927734375,61.25830078125,0)" xlink:href="#aM"/></g><g id="o"><use transform="matrix(0.00927734375,0,0,0.00927734375,0,0)" xlink:href="#aG"/><use transform="matrix(0.00927734375,0,0,0.00927734375,5.27880859375,0)" xlink:href="#aO"/><use transform="matrix(0.00927734375,0,0,0.00927734375,9.5,0)" xlink:href="#aP"/><use transform="matrix(0.00927734375,0,0,0.00927734375,13.72119140625,0)" xlink:href="#aP"/><use transform="matrix(0.00927734375,0,0,0.00927734375,17.9423828125,0)" xlink:href="#aH"/><use transform="matrix(0.00927734375,0,0,0.00927734375,28.50927734375,0)" xlink:href="#aQ"/></g><g id="p"><use transform="matrix(0.00927734375,0,0,0.00927734375,0,0)" xlink:href="#aD"/><use transform="matrix(0.00927734375,0,0,0.00927734375,13.72119140625,0)" xlink:href="#aL"/></g><use transform="matrix(0.00927734375,0,0,0.00927734375,0,0)" xlink:href="#aO" id="q"/><path d="M101-571v-205l995-418v154L238-674l858 367v153" id="bg"/><use transform="matrix(0.00927734375,0,0,0.00927734375,0,0)" xlink:href="#bg" id="r"/><path d="M146 425v-1909h407v129H320V296h233v129H146" id="bh"/><path d="M16 425V296h233v-1651H16v-129h407V425H16" id="bi"/><g id="s"><use transform="matrix(0.00927734375,0,0,0.00927734375,0,0)" xlink:href="#aX"/><use transform="matrix(0.00927734375,0,0,0.00927734375,10.56689453125,0)" xlink:href="#aM"/><use transform="matrix(0.00927734375,0,0,0.00927734375,20.06689453125,0)" xlink:href="#aH"/><use transform="matrix(0.00927734375,0,0,0.00927734375,30.6337890625,0)" xlink:href="#aU"/><use transform="matrix(0.00927734375,0,0,0.00927734375,36.9609375,0)" xlink:href="#aO"/><use transform="matrix(0.00927734375,0,0,0.00927734375,41.18212890625,0)" xlink:href="#aV"/><use transform="matrix(0.00927734375,0,0,0.00927734375,51.7490234375,0)" xlink:href="#aW"/><use transform="matrix(0.00927734375,0,0,0.00927734375,62.31591796875,0)" xlink:href="#aX"/><use transform="matrix(0.00927734375,0,0,0.00927734375,72.8828125,0)" xlink:href="#aJ"/><use transform="matrix(0.00927734375,0,0,0.00927734375,78.16162109375,0)" xlink:href="#bh"/><use transform="matrix(0.00927734375,0,0,0.00927734375,83.4404296875,0)" xlink:href="#aO"/><use transform="matrix(0.00927734375,0,0,0.00927734375,87.66162109375,0)" xlink:href="#bi"/></g><path d="M1195-963c-175 0-249 144-249 336V0H768v-686c-5-190-26-277-198-277-171 0-249 147-249 336V0H142c-3-345 6-754-6-1082h170c5 68 6 94 8 185h3c69-134 140-205 316-205 171 0 257 66 294 205h3c67-129 152-205 328-205 238 0 313 127 313 381V0h-178v-686c-5-190-26-277-198-277" id="bj"/><g id="t"><use transform="matrix(0.00927734375,0,0,0.00927734375,0,0)" xlink:href="#aO"/><use transform="matrix(0.00927734375,0,0,0.00927734375,4.22119140625,0)" xlink:href="#aV"/><use transform="matrix(0.00927734375,0,0,0.00927734375,14.7880859375,0)" xlink:href="#aZ"/><use transform="matrix(0.00927734375,0,0,0.00927734375,24.2880859375,0)" xlink:href="#aU"/><use transform="matrix(0.00927734375,0,0,0.00927734375,30.615234375,0)" xlink:href="#aH"/><use transform="matrix(0.00927734375,0,0,0.00927734375,41.18212890625,0)" xlink:href="#bj"/><use transform="matrix(0.00927734375,0,0,0.00927734375,57.00927734375,0)" xlink:href="#aH"/><use transform="matrix(0.00927734375,0,0,0.00927734375,67.576171875,0)" xlink:href="#aV"/><use transform="matrix(0.00927734375,0,0,0.00927734375,78.14306640625,0)" xlink:href="#aJ"/></g><use transform="matrix(0.00927734375,0,0,0.00927734375,0,0)" xlink:href="#aO" id="u"/><path d="M740-934C689-691 665-619 508 0H300L-3-1082h178c78 327 154 591 226 933 77-315 163-621 243-933h193c78 311 160 619 235 933 72-318 158-621 236-933h176L1174 0H965c-74-312-158-615-225-934" id="bk"/><g id="v"><use transform="matrix(0.00927734375,0,0,0.00927734375,0,0)" xlink:href="#bk"/><use transform="matrix(0.00927734375,0,0,0.00927734375,13.72119140625,0)" xlink:href="#aO"/><use transform="matrix(0.00927734375,0,0,0.00927734375,17.9423828125,0)" xlink:href="#aJ"/><use transform="matrix(0.00927734375,0,0,0.00927734375,23.22119140625,0)" xlink:href="#ba"/></g><g id="w"><use transform="matrix(0.00927734375,0,0,0.00927734375,0,0)" xlink:href="#aL"/><use transform="matrix(0.00927734375,0,0,0.00927734375,10.56689453125,0)" xlink:href="#aV"/><use transform="matrix(0.00927734375,0,0,0.00927734375,21.1337890625,0)" xlink:href="#aH"/></g><path d="M777-584V0H587v-584L45-1409h210l429 671 427-671h210" id="bl"/><g id="x"><use transform="matrix(0.00927734375,0,0,0.00927734375,0,0)" xlink:href="#bl"/><use transform="matrix(0.00927734375,0,0,0.00927734375,10.9287109375,0)" xlink:href="#aH"/><use transform="matrix(0.00927734375,0,0,0.00927734375,21.49560546875,0)" xlink:href="#aM"/></g><g id="y"><use transform="matrix(0.00927734375,0,0,0.00927734375,0,0)" xlink:href="#aX"/><use transform="matrix(0.00927734375,0,0,0.00927734375,10.56689453125,0)" xlink:href="#aM"/><use transform="matrix(0.00927734375,0,0,0.00927734375,20.06689453125,0)" xlink:href="#aH"/><use transform="matrix(0.00927734375,0,0,0.00927734375,30.6337890625,0)" xlink:href="#aU"/><use transform="matrix(0.00927734375,0,0,0.00927734375,36.9609375,0)" xlink:href="#aO"/><use transform="matrix(0.00927734375,0,0,0.00927734375,41.18212890625,0)" xlink:href="#aV"/><use transform="matrix(0.00927734375,0,0,0.00927734375,51.7490234375,0)" xlink:href="#aW"/><use transform="matrix(0.00927734375,0,0,0.00927734375,62.31591796875,0)" xlink:href="#aX"/><use transform="matrix(0.00927734375,0,0,0.00927734375,72.8828125,0)" xlink:href="#aJ"/><use transform="matrix(0.00927734375,0,0,0.00927734375,78.16162109375,0)" xlink:href="#bh"/><use transform="matrix(0.00927734375,0,0,0.00927734375,83.4404296875,0)" xlink:href="#aO"/><use transform="matrix(0.00927734375,0,0,0.00927734375,87.66162109375,0)" xlink:href="#bi"/></g><path d="M100-856v-148h995v148H100zm0 512v-148h995v148H100" id="bm"/><g id="z"><use transform="matrix(0.00927734375,0,0,0.00927734375,0,0)" xlink:href="#bm"/><use transform="matrix(0.00927734375,0,0,0.00927734375,11.095703125,0)" xlink:href="#bm"/></g><path d="M813 20c-458 0-705-273-710-731-5-449 256-722 701-719 323 2 501 105 605 332l-182 54c-76-154-207-229-428-230-335-2-502 220-502 563 0 339 185 576 516 576 185 0 358-63 451-156v-254H843v-160h597v486C1303-77 1082 20 813 20" id="bn"/><path d="M385-51c0 144-24 223-78 313H184c63-91 94-178 94-262h-88v-219h195v168" id="bo"/><path d="M824-897c-1-17 6-175 12-185h171c-12 319-6 716-6 1051 0 304-151 456-453 456-226 0-374-90-417-267l181-26c24 102 112 157 241 156 179 0 269-105 269-315 0-57 3-120-2-174C759-74 647 8 472 8 339 8 242-36 180-124S86-350 86-539c0-191 33-332 100-423s169-137 306-137c167 0 273 85 332 202zm-38 579c48-119 46-331 0-450-42-108-118-197-250-197-92 0-154 37-201 100-78 107-74 530-4 643 63 101 251 129 353 47 43-35 77-81 102-143" id="bp"/><g id="A"><use transform="matrix(0.00927734375,0,0,0.00927734375,0,0)" xlink:href="#bn"/><use transform="matrix(0.00927734375,0,0,0.00927734375,14.77880859375,0)" xlink:href="#aH"/><use transform="matrix(0.00927734375,0,0,0.00927734375,25.345703125,0)" xlink:href="#aJ"/><use transform="matrix(0.00927734375,0,0,0.00927734375,30.62451171875,0)" xlink:href="#aZ"/><use transform="matrix(0.00927734375,0,0,0.00927734375,40.12451171875,0)" xlink:href="#aL"/><use transform="matrix(0.00927734375,0,0,0.00927734375,50.69140625,0)" xlink:href="#aU"/><use transform="matrix(0.00927734375,0,0,0.00927734375,57.0185546875,0)" xlink:href="#aU"/><use transform="matrix(0.00927734375,0,0,0.00927734375,63.345703125,0)" xlink:href="#aH"/><use transform="matrix(0.00927734375,0,0,0.00927734375,73.91259765625,0)" xlink:href="#aJ"/><use transform="matrix(0.00927734375,0,0,0.00927734375,79.19140625,0)" xlink:href="#bd"/><use transform="matrix(0.00927734375,0,0,0.00927734375,89.75830078125,0)" xlink:href="#aV"/><use transform="matrix(0.00927734375,0,0,0.00927734375,100.3251953125,0)" xlink:href="#aM"/><use transform="matrix(0.00927734375,0,0,0.00927734375,109.8251953125,0)" xlink:href="#bk"/><use transform="matrix(0.00927734375,0,0,0.00927734375,123.54638671875,0)" xlink:href="#aH"/><use transform="matrix(0.00927734375,0,0,0.00927734375,134.11328125,0)" xlink:href="#aU"/><use transform="matrix(0.00927734375,0,0,0.00927734375,140.4404296875,0)" xlink:href="#aR"/><use transform="matrix(0.00927734375,0,0,0.00927734375,146.767578125,0)" xlink:href="#aO"/><use transform="matrix(0.00927734375,0,0,0.00927734375,150.98876953125,0)" xlink:href="#bo"/><use transform="matrix(0.00927734375,0,0,0.00927734375,156.267578125,0)" xlink:href="#bp"/><use transform="matrix(0.00927734375,0,0,0.00927734375,166.83447265625,0)" xlink:href="#bd"/><use transform="matrix(0.00927734375,0,0,0.00927734375,177.4013671875,0)" xlink:href="#bj"/><use transform="matrix(0.00927734375,0,0,0.00927734375,193.228515625,0)" xlink:href="#aH"/><use transform="matrix(0.00927734375,0,0,0.00927734375,203.79541015625,0)" xlink:href="#aS"/></g><path d="M187 0v-219h195V0H187" id="bq"/><path d="M1207-1021c-59-155-207-253-415-253-322-2-494 232-494 563 0 326 186 574 502 574 197 0 346-98 445-293l156 78C1298-131 1096 20 791 20c-448 0-682-279-687-731-5-437 254-721 686-719 309 2 507 125 598 349" id="br"/><g id="B"><use transform="matrix(0.00927734375,0,0,0.00927734375,0,0)" xlink:href="#aJ"/><use transform="matrix(0.00927734375,0,0,0.00927734375,5.27880859375,0)" xlink:href="#aH"/><use transform="matrix(0.00927734375,0,0,0.00927734375,15.845703125,0)" xlink:href="#aI"/><use transform="matrix(0.00927734375,0,0,0.00927734375,25.345703125,0)" xlink:href="#aJ"/><use transform="matrix(0.00927734375,0,0,0.00927734375,30.62451171875,0)" xlink:href="#aK"/><use transform="matrix(0.00927734375,0,0,0.00927734375,43.29736328125,0)" xlink:href="#aL"/><use transform="matrix(0.00927734375,0,0,0.00927734375,53.8642578125,0)" xlink:href="#aI"/><use transform="matrix(0.00927734375,0,0,0.00927734375,63.3642578125,0)" xlink:href="#bh"/><use transform="matrix(0.00927734375,0,0,0.00927734375,68.64306640625,0)" xlink:href="#aO"/><use transform="matrix(0.00927734375,0,0,0.00927734375,72.8642578125,0)" xlink:href="#bi"/><use transform="matrix(0.00927734375,0,0,0.00927734375,78.14306640625,0)" xlink:href="#bq"/><use transform="matrix(0.00927734375,0,0,0.00927734375,83.421875,0)" xlink:href="#aK"/><use transform="matrix(0.00927734375,0,0,0.00927734375,96.0947265625,0)" xlink:href="#bd"/><use transform="matrix(0.00927734375,0,0,0.00927734375,106.66162109375,0)" xlink:href="#aZ"/><use transform="matrix(0.00927734375,0,0,0.00927734375,116.16162109375,0)" xlink:href="#bb"/><use transform="matrix(0.00927734375,0,0,0.00927734375,125.66162109375,0)" xlink:href="#br"/><use transform="matrix(0.00927734375,0,0,0.00927734375,139.3828125,0)" xlink:href="#aL"/><use transform="matrix(0.00927734375,0,0,0.00927734375,149.94970703125,0)" xlink:href="#aP"/><use transform="matrix(0.00927734375,0,0,0.00927734375,154.1708984375,0)" xlink:href="#aL"/><use transform="matrix(0.00927734375,0,0,0.00927734375,164.73779296875,0)" xlink:href="#aU"/></g><use transform="matrix(0.00927734375,0,0,0.00927734375,0,0)" xlink:href="#bm" id="C"/><path d="M387-205c6 188-6 358-80 466H182c51-74 97-148 97-262h-91v-205h199zM188-876v-205h199v205H188" id="bs"/><g id="D"><use transform="matrix(0.00927734375,0,0,0.00927734375,0,0)" xlink:href="#br"/><use transform="matrix(0.00927734375,0,0,0.00927734375,13.72119140625,0)" xlink:href="#aL"/><use transform="matrix(0.00927734375,0,0,0.00927734375,24.2880859375,0)" xlink:href="#aV"/><use transform="matrix(0.00927734375,0,0,0.00927734375,34.85498046875,0)" xlink:href="#aM"/><use transform="matrix(0.00927734375,0,0,0.00927734375,44.35498046875,0)" xlink:href="#aL"/><use transform="matrix(0.00927734375,0,0,0.00927734375,54.921875,0)" xlink:href="#aP"/><use transform="matrix(0.00927734375,0,0,0.00927734375,59.14306640625,0)" xlink:href="#aH"/><use transform="matrix(0.00927734375,0,0,0.00927734375,69.7099609375,0)" xlink:href="#bq"/><use transform="matrix(0.00927734375,0,0,0.00927734375,74.98876953125,0)" xlink:href="#aB"/><use transform="matrix(0.00927734375,0,0,0.00927734375,88.7099609375,0)" xlink:href="#aH"/><use transform="matrix(0.00927734375,0,0,0.00927734375,99.27685546875,0)" xlink:href="#aQ"/><use transform="matrix(0.00927734375,0,0,0.00927734375,109.84375,0)" xlink:href="#bs"/></g><g id="E"><use transform="matrix(0.00927734375,0,0,0.00927734375,0,0)" xlink:href="#aJ"/><use transform="matrix(0.00927734375,0,0,0.00927734375,5.27880859375,0)" xlink:href="#aH"/><use transform="matrix(0.00927734375,0,0,0.00927734375,15.845703125,0)" xlink:href="#aI"/><use transform="matrix(0.00927734375,0,0,0.00927734375,25.345703125,0)" xlink:href="#aK"/><use transform="matrix(0.00927734375,0,0,0.00927734375,38.0185546875,0)" xlink:href="#aL"/><use transform="matrix(0.00927734375,0,0,0.00927734375,48.58544921875,0)" xlink:href="#aI"/><use transform="matrix(0.00927734375,0,0,0.00927734375,58.08544921875,0)" xlink:href="#bh"/><use transform="matrix(0.00927734375,0,0,0.00927734375,63.3642578125,0)" xlink:href="#aO"/><use transform="matrix(0.00927734375,0,0,0.00927734375,67.58544921875,0)" xlink:href="#bi"/></g><g id="F"><use transform="matrix(0.00927734375,0,0,0.00927734375,0,0)" xlink:href="#aK"/><use transform="matrix(0.00927734375,0,0,0.00927734375,12.6728515625,0)" xlink:href="#bd"/><use transform="matrix(0.00927734375,0,0,0.00927734375,23.23974609375,0)" xlink:href="#aZ"/><use transform="matrix(0.00927734375,0,0,0.00927734375,32.73974609375,0)" xlink:href="#bb"/><use transform="matrix(0.00927734375,0,0,0.00927734375,42.23974609375,0)" xlink:href="#br"/><use transform="matrix(0.00927734375,0,0,0.00927734375,55.9609375,0)" xlink:href="#aL"/><use transform="matrix(0.00927734375,0,0,0.00927734375,66.52783203125,0)" xlink:href="#aP"/><use transform="matrix(0.00927734375,0,0,0.00927734375,70.7490234375,0)" xlink:href="#aL"/><use transform="matrix(0.00927734375,0,0,0.00927734375,81.31591796875,0)" xlink:href="#aU"/></g><use transform="matrix(0.00927734375,0,0,0.00927734375,0,0)" xlink:href="#bm" id="G"/><g id="H"><use transform="matrix(0.00927734375,0,0,0.00927734375,0,0)" xlink:href="#br"/><use transform="matrix(0.00927734375,0,0,0.00927734375,13.72119140625,0)" xlink:href="#aL"/><use transform="matrix(0.00927734375,0,0,0.00927734375,24.2880859375,0)" xlink:href="#aV"/><use transform="matrix(0.00927734375,0,0,0.00927734375,34.85498046875,0)" xlink:href="#aM"/><use transform="matrix(0.00927734375,0,0,0.00927734375,44.35498046875,0)" xlink:href="#aL"/><use transform="matrix(0.00927734375,0,0,0.00927734375,54.921875,0)" xlink:href="#aP"/><use transform="matrix(0.00927734375,0,0,0.00927734375,59.14306640625,0)" xlink:href="#aH"/><use transform="matrix(0.00927734375,0,0,0.00927734375,69.7099609375,0)" xlink:href="#bq"/><use transform="matrix(0.00927734375,0,0,0.00927734375,74.98876953125,0)" xlink:href="#bn"/><use transform="matrix(0.00927734375,0,0,0.00927734375,89.767578125,0)" xlink:href="#aU"/><use transform="matrix(0.00927734375,0,0,0.00927734375,96.0947265625,0)" xlink:href="#aH"/><use transform="matrix(0.00927734375,0,0,0.00927734375,106.66162109375,0)" xlink:href="#aH"/><use transform="matrix(0.00927734375,0,0,0.00927734375,117.228515625,0)" xlink:href="#aV"/><use transform="matrix(0.00927734375,0,0,0.00927734375,127.79541015625,0)" xlink:href="#bs"/></g><g id="I"><use transform="matrix(0.00927734375,0,0,0.00927734375,0,0)" xlink:href="#aB"/><use transform="matrix(0.00927734375,0,0,0.00927734375,13.72119140625,0)" xlink:href="#aX"/><use transform="matrix(0.00927734375,0,0,0.00927734375,24.2880859375,0)" xlink:href="#aV"/></g><g id="J"><use transform="matrix(0.00927734375,0,0,0.00927734375,0,0)" xlink:href="#aB"/><use transform="matrix(0.00927734375,0,0,0.00927734375,13.72119140625,0)" xlink:href="#aH"/><use transform="matrix(0.00927734375,0,0,0.00927734375,24.2880859375,0)" xlink:href="#aM"/><use transform="matrix(0.00927734375,0,0,0.00927734375,33.7880859375,0)" xlink:href="#aJ"/><use transform="matrix(0.00927734375,0,0,0.00927734375,39.06689453125,0)" xlink:href="#bd"/><use transform="matrix(0.00927734375,0,0,0.00927734375,49.6337890625,0)" xlink:href="#aU"/><use transform="matrix(0.00927734375,0,0,0.00927734375,55.9609375,0)" xlink:href="#aJ"/><use transform="matrix(0.00927734375,0,0,0.00927734375,61.23974609375,0)" xlink:href="#aR"/><use transform="matrix(0.00927734375,0,0,0.00927734375,67.56689453125,0)" xlink:href="#aS"/><use transform="matrix(0.00927734375,0,0,0.00927734375,73.89404296875,0)" xlink:href="#bs"/></g><path d="M91-464v-160h500v160H91" id="bt"/><path d="M101-154v-153l858-367-858-366v-154l995 418v205" id="bu"/><g id="K"><use transform="matrix(0.00927734375,0,0,0.00927734375,0,0)" xlink:href="#bt"/><use transform="matrix(0.00927734375,0,0,0.00927734375,6.3271484375,0)" xlink:href="#bu"/></g><g id="L"><use transform="matrix(0.00927734375,0,0,0.00927734375,0,0)" xlink:href="#aD"/><use transform="matrix(0.00927734375,0,0,0.00927734375,13.72119140625,0)" xlink:href="#aL"/><use transform="matrix(0.00927734375,0,0,0.00927734375,24.2880859375,0)" xlink:href="#aJ"/><use transform="matrix(0.00927734375,0,0,0.00927734375,29.56689453125,0)" xlink:href="#aH"/></g><path d="M761-1409c296-3 496 141 497 424 1 274-202 436-485 436H359V0H168v-1409h593zm305 426c0-182-109-273-328-273H359v556h387c213 0 320-94 320-283" id="bv"/><g id="M"><use transform="matrix(0.00927734375,0,0,0.00927734375,0,0)" xlink:href="#bv"/><use transform="matrix(0.00927734375,0,0,0.00927734375,12.6728515625,0)" xlink:href="#aB"/><use transform="matrix(0.00927734375,0,0,0.00927734375,26.39404296875,0)" xlink:href="#aC"/><use transform="matrix(0.00927734375,0,0,0.00927734375,39.06689453125,0)" xlink:href="#ay"/></g><path d="M1121 0v-653H359V0H168v-1409h191v596h762v-596h191V0h-191" id="bw"/><path d="M1106 0L543-680 359-540V0H168v-1409h191v706l679-706h225L663-797 1343 0h-237" id="bx"/><g id="N"><use transform="matrix(0.00927734375,0,0,0.00927734375,0,0)" xlink:href="#br"/><use transform="matrix(0.00927734375,0,0,0.00927734375,13.72119140625,0)" xlink:href="#bw"/><use transform="matrix(0.00927734375,0,0,0.00927734375,27.4423828125,0)" xlink:href="#aC"/><use transform="matrix(0.00927734375,0,0,0.00927734375,40.115234375,0)" xlink:href="#br"/><use transform="matrix(0.00927734375,0,0,0.00927734375,53.83642578125,0)" xlink:href="#bx"/></g><g id="O"><use transform="matrix(0.00927734375,0,0,0.00927734375,5.27880859375,0)" xlink:href="#aK"/><use transform="matrix(0.00927734375,0,0,0.00927734375,17.95166015625,0)" xlink:href="#az"/><use transform="matrix(0.00927734375,0,0,0.00927734375,29.5576171875,0)" xlink:href="#aD"/></g><path d="M544-168c91-408 108-428 333-1241h183c108 399 243 834 333 1241 89-385 93-366 334-1241h199L1511 0h-228c-108-419-218-753-314-1196C893-847 877-832 652 0H424L9-1409h199C320-995 449-600 544-168" id="by"/><g id="P"><use transform="matrix(0.00927734375,0,0,0.00927734375,0,0)" xlink:href="#by"/><use transform="matrix(0.00927734375,0,0,0.00927734375,17.22802734375,0)" xlink:href="#bd"/><use transform="matrix(0.00927734375,0,0,0.00927734375,27.794921875,0)" xlink:href="#aO"/><use transform="matrix(0.00927734375,0,0,0.00927734375,32.01611328125,0)" xlink:href="#aJ"/></g><g id="Q"><use transform="matrix(0.00927734375,0,0,0.00927734375,0,0)" xlink:href="#aG"/><use transform="matrix(0.00927734375,0,0,0.00927734375,5.27880859375,0)" xlink:href="#aL"/><use transform="matrix(0.00927734375,0,0,0.00927734375,15.845703125,0)" xlink:href="#aU"/></g><g id="R"><use transform="matrix(0.00927734375,0,0,0.00927734375,5.27880859375,0)" xlink:href="#aX"/><use transform="matrix(0.00927734375,0,0,0.00927734375,15.845703125,0)" xlink:href="#aM"/><use transform="matrix(0.00927734375,0,0,0.00927734375,25.345703125,0)" xlink:href="#aH"/><use transform="matrix(0.00927734375,0,0,0.00927734375,35.91259765625,0)" xlink:href="#aU"/></g><g id="S"><use transform="matrix(0.00927734375,0,0,0.00927734375,0,0)" xlink:href="#aZ"/><use transform="matrix(0.00927734375,0,0,0.00927734375,9.5,0)" xlink:href="#aP"/><use transform="matrix(0.00927734375,0,0,0.00927734375,13.72119140625,0)" xlink:href="#aO"/><use transform="matrix(0.00927734375,0,0,0.00927734375,17.9423828125,0)" xlink:href="#aZ"/><use transform="matrix(0.00927734375,0,0,0.00927734375,27.4423828125,0)" xlink:href="#bb"/><use transform="matrix(0.00927734375,0,0,0.00927734375,36.9423828125,0)" xlink:href="#aM"/></g><g id="T"><use transform="matrix(0.00927734375,0,0,0.00927734375,0,0)" xlink:href="#aB"/><use transform="matrix(0.00927734375,0,0,0.00927734375,13.72119140625,0)" xlink:href="#aC"/><use transform="matrix(0.00927734375,0,0,0.00927734375,26.39404296875,0)" xlink:href="#az"/><use transform="matrix(0.00927734375,0,0,0.00927734375,38,0)" xlink:href="#aB"/><use transform="matrix(0.00927734375,0,0,0.00927734375,51.3779296875,0)" xlink:href="#bl"/></g><g id="U"><use transform="matrix(0.00927734375,0,0,0.00927734375,0,0)" xlink:href="#aK"/><use transform="matrix(0.00927734375,0,0,0.00927734375,12.6728515625,0)" xlink:href="#az"/><use transform="matrix(0.00927734375,0,0,0.00927734375,24.27880859375,0)" xlink:href="#aD"/></g><path d="M0 20l411-1504h158L162 20H0" id="bz"/><use transform="matrix(0.00927734375,0,0,0.00927734375,0,0)" xlink:href="#bz" id="V"/><path d="M797-1430c449 5 693 268 698 719 4 394-216 676-567 717 49 144 110 238 276 238 37 0 75-4 115-13v134c-162 40-325 29-427-63-64-58-118-153-159-286C321-10 102-277 97-711c-5-442 260-724 700-719zm-2 1295c338 0 505-227 505-576 0-336-175-563-503-563-332 0-506 222-506 563 0 335 178 576 504 576" id="bA"/><g id="W"><use transform="matrix(0.00927734375,0,0,0.00927734375,0,0)" xlink:href="#bA"/><use transform="matrix(0.00927734375,0,0,0.00927734375,14.77880859375,0)" xlink:href="#aT"/><use transform="matrix(0.00927734375,0,0,0.00927734375,28.5,0)" xlink:href="#aF"/><use transform="matrix(0.00927734375,0,0,0.00927734375,33.77880859375,0)" xlink:href="#az"/></g><g id="X"><use transform="matrix(0.00927734375,0,0,0.00927734375,0,0)" xlink:href="#aF"/><use transform="matrix(0.00927734375,0,0,0.00927734375,5.27880859375,0)" xlink:href="#aN"/></g><g id="Y"><use transform="matrix(0.00927734375,0,0,0.00927734375,0,0)" xlink:href="#aB"/><use transform="matrix(0.00927734375,0,0,0.00927734375,13.72119140625,0)" xlink:href="#aC"/><use transform="matrix(0.00927734375,0,0,0.00927734375,26.39404296875,0)" xlink:href="#az"/><use transform="matrix(0.00927734375,0,0,0.00927734375,38,0)" xlink:href="#aB"/><use transform="matrix(0.00927734375,0,0,0.00927734375,51.3779296875,0)" xlink:href="#bl"/></g><g id="Z"><use transform="matrix(0.00927734375,0,0,0.00927734375,0,0)" xlink:href="#aK"/><use transform="matrix(0.00927734375,0,0,0.00927734375,12.6728515625,0)" xlink:href="#az"/><use transform="matrix(0.00927734375,0,0,0.00927734375,24.27880859375,0)" xlink:href="#aD"/></g><g id="aa"><use transform="matrix(0.00927734375,0,0,0.00927734375,0,0)" xlink:href="#aF"/><use transform="matrix(0.00927734375,0,0,0.00927734375,5.27880859375,0)" xlink:href="#aN"/></g><g id="ab"><use transform="matrix(0.00927734375,0,0,0.00927734375,0,0)" xlink:href="#bA"/><use transform="matrix(0.00927734375,0,0,0.00927734375,14.77880859375,0)" xlink:href="#aT"/><use transform="matrix(0.00927734375,0,0,0.00927734375,28.5,0)" xlink:href="#aF"/><use transform="matrix(0.00927734375,0,0,0.00927734375,33.77880859375,0)" xlink:href="#az"/></g><g id="ac"><use transform="matrix(0.00927734375,0,0,0.00927734375,0,0)" xlink:href="#aB"/><use transform="matrix(0.00927734375,0,0,0.00927734375,13.72119140625,0)" xlink:href="#aH"/><use transform="matrix(0.00927734375,0,0,0.00927734375,24.2880859375,0)" xlink:href="#aM"/><use transform="matrix(0.00927734375,0,0,0.00927734375,33.7880859375,0)" xlink:href="#aH"/><use transform="matrix(0.00927734375,0,0,0.00927734375,44.35498046875,0)" xlink:href="#aJ"/></g><g id="ad"><use transform="matrix(0.00927734375,0,0,0.00927734375,0,0)" xlink:href="#aJ"/><use transform="matrix(0.00927734375,0,0,0.00927734375,5.27880859375,0)" xlink:href="#aI"/><use transform="matrix(0.00927734375,0,0,0.00927734375,14.77880859375,0)" xlink:href="#aJ"/></g><g id="ae"><use transform="matrix(0.00927734375,0,0,0.00927734375,0,0)" xlink:href="#aY"/><use transform="matrix(0.00927734375,0,0,0.00927734375,10.56689453125,0)" xlink:href="#aL"/><use transform="matrix(0.00927734375,0,0,0.00927734375,21.1337890625,0)" xlink:href="#aI"/><use transform="matrix(0.00927734375,0,0,0.00927734375,30.6337890625,0)" xlink:href="#aH"/><use transform="matrix(0.00927734375,0,0,0.00927734375,41.20068359375,0)" xlink:href="#aM"/></g><g id="af"><use transform="matrix(0.00927734375,0,0,0.00927734375,0,0)" xlink:href="#aY"/><use transform="matrix(0.00927734375,0,0,0.00927734375,10.56689453125,0)" xlink:href="#aL"/><use transform="matrix(0.00927734375,0,0,0.00927734375,21.1337890625,0)" xlink:href="#aI"/><use transform="matrix(0.00927734375,0,0,0.00927734375,30.6337890625,0)" xlink:href="#aH"/><use transform="matrix(0.00927734375,0,0,0.00927734375,41.20068359375,0)" xlink:href="#aM"/></g><g id="ag"><use transform="matrix(0.00927734375,0,0,0.00927734375,0,0)" xlink:href="#aZ"/><use transform="matrix(0.00927734375,0,0,0.00927734375,9.5,0)" xlink:href="#aL"/><use transform="matrix(0.00927734375,0,0,0.00927734375,20.06689453125,0)" xlink:href="#aP"/><use transform="matrix(0.00927734375,0,0,0.00927734375,24.2880859375,0)" xlink:href="#aL"/><use transform="matrix(0.00927734375,0,0,0.00927734375,34.85498046875,0)" xlink:href="#aU"/></g><g id="ah"><use transform="matrix(0.00927734375,0,0,0.00927734375,0,0)" xlink:href="#bn"/><use transform="matrix(0.00927734375,0,0,0.00927734375,14.77880859375,0)" xlink:href="#aH"/><use transform="matrix(0.00927734375,0,0,0.00927734375,25.345703125,0)" xlink:href="#aV"/><use transform="matrix(0.00927734375,0,0,0.00927734375,35.91259765625,0)" xlink:href="#aH"/><use transform="matrix(0.00927734375,0,0,0.00927734375,46.4794921875,0)" xlink:href="#aU"/><use transform="matrix(0.00927734375,0,0,0.00927734375,52.806640625,0)" xlink:href="#bd"/><use transform="matrix(0.00927734375,0,0,0.00927734375,63.37353515625,0)" xlink:href="#aJ"/><use transform="matrix(0.00927734375,0,0,0.00927734375,68.65234375,0)" xlink:href="#aH"/><use transform="matrix(0.00927734375,0,0,0.00927734375,79.21923828125,0)" xlink:href="#aB"/><use transform="matrix(0.00927734375,0,0,0.00927734375,92.9404296875,0)" xlink:href="#bd"/><use transform="matrix(0.00927734375,0,0,0.00927734375,103.50732421875,0)" xlink:href="#aV"/><use transform="matrix(0.00927734375,0,0,0.00927734375,114.07421875,0)" xlink:href="#aQ"/><use transform="matrix(0.00927734375,0,0,0.00927734375,124.64111328125,0)" xlink:href="#aL"/><use transform="matrix(0.00927734375,0,0,0.00927734375,135.2080078125,0)" xlink:href="#bj"/></g><g id="ai"><use transform="matrix(0.00927734375,0,0,0.00927734375,0,0)" xlink:href="#aV"/><use transform="matrix(0.00927734375,0,0,0.00927734375,10.56689453125,0)" xlink:href="#aX"/><use transform="matrix(0.00927734375,0,0,0.00927734375,21.1337890625,0)" xlink:href="#bj"/><use transform="matrix(0.00927734375,0,0,0.00927734375,36.9609375,0)" xlink:href="#aY"/><use transform="matrix(0.00927734375,0,0,0.00927734375,47.52783203125,0)" xlink:href="#aH"/><use transform="matrix(0.00927734375,0,0,0.00927734375,58.0947265625,0)" xlink:href="#aU"/></g><g id="aj"><use transform="matrix(0.00927734375,0,0,0.00927734375,0,0)" xlink:href="#aN"/><use transform="matrix(0.00927734375,0,0,0.00927734375,11.60595703125,0)" xlink:href="#aO"/><use transform="matrix(0.00927734375,0,0,0.00927734375,15.8271484375,0)" xlink:href="#aV"/><use transform="matrix(0.00927734375,0,0,0.00927734375,26.39404296875,0)" xlink:href="#aQ"/></g><g id="ak"><use transform="matrix(0.00927734375,0,0,0.00927734375,0,0)" xlink:href="#aZ"/><use transform="matrix(0.00927734375,0,0,0.00927734375,9.5,0)" xlink:href="#aL"/><use transform="matrix(0.00927734375,0,0,0.00927734375,20.06689453125,0)" xlink:href="#aU"/><use transform="matrix(0.00927734375,0,0,0.00927734375,26.39404296875,0)" xlink:href="#aU"/><use transform="matrix(0.00927734375,0,0,0.00927734375,32.72119140625,0)" xlink:href="#aH"/><use transform="matrix(0.00927734375,0,0,0.00927734375,43.2880859375,0)" xlink:href="#aZ"/><use transform="matrix(0.00927734375,0,0,0.00927734375,52.7880859375,0)" xlink:href="#aJ"/></g><g id="al"><use transform="matrix(0.00927734375,0,0,0.00927734375,0,0)" xlink:href="#bd"/><use transform="matrix(0.00927734375,0,0,0.00927734375,10.56689453125,0)" xlink:href="#aV"/><use transform="matrix(0.00927734375,0,0,0.00927734375,21.1337890625,0)" xlink:href="#aM"/><use transform="matrix(0.00927734375,0,0,0.00927734375,30.6337890625,0)" xlink:href="#bk"/><use transform="matrix(0.00927734375,0,0,0.00927734375,44.35498046875,0)" xlink:href="#aH"/><use transform="matrix(0.00927734375,0,0,0.00927734375,54.921875,0)" xlink:href="#aU"/><use transform="matrix(0.00927734375,0,0,0.00927734375,61.2490234375,0)" xlink:href="#aM"/></g><path fill="#f66" d="M671-608v428H524v-428H100v-146h424v-428h147v428h424v146H671" id="bB"/><use transform="matrix(0.01171875,0,0,0.01171875,0,0)" xlink:href="#bB" id="am"/><path fill="#f66" d="M1195-963c-175 0-249 144-249 336V0H768v-686c-5-190-26-277-198-277-171 0-249 147-249 336V0H142c-3-345 6-754-6-1082h170c5 68 6 94 8 185h3c69-134 140-205 316-205 171 0 257 66 294 205h3c67-129 152-205 328-205 238 0 313 127 313 381V0h-178v-686c-5-190-26-277-198-277" id="bC"/><path fill="#f66" d="M571-1102c350 0 480 196 482 560 2 357-151 562-488 562C233 20 86-198 86-542c0-373 162-560 485-560zm-8 989c244 0 301-164 301-429 0-266-49-427-290-427-239 0-299 165-299 427 0 252 61 429 288 429" id="bD"/><path fill="#f66" d="M318-861c55-157 83-241 257-241 24 0 48 3 73 10v165c-24-7-56-10-96-10-75 0-132 33-171 97s-59 156-59 276V0H142c-3-364 6-725-6-1082h170c5 123 8 196 8 221h4" id="bE"/><path fill="#f66" d="M87-548c0-338 159-553 484-554 325-2 484 204 477 599H276c-1 227 88 385 302 388 146 2 246-65 283-166l158 45C954-65 807 20 578 20 240 20 87-193 87-548zm775-93c-19-206-90-328-294-328-185 0-285 140-290 328h584" id="bF"/><g id="an"><use transform="matrix(0.01171875,0,0,0.01171875,0,0)" xlink:href="#bC"/><use transform="matrix(0.01171875,0,0,0.01171875,19.9921875,0)" xlink:href="#bD"/><use transform="matrix(0.01171875,0,0,0.01171875,33.33984375,0)" xlink:href="#bE"/><use transform="matrix(0.01171875,0,0,0.01171875,41.33203125,0)" xlink:href="#bF"/></g><path d="M797-1430c449 5 698 268 698 719S1245 20 795 20C342 20 103-258 97-711c-6-442 260-724 700-719zm-2 1295c338 0 505-227 505-576 0-336-175-563-503-563-332 0-506 222-506 563 0 335 178 576 504 576" id="bG"/><g id="ap"><use transform="matrix(0.00927734375,0,0,0.00927734375,0,0)" xlink:href="#aE"/><use transform="matrix(0.00927734375,0,0,0.00927734375,13.72119140625,0)" xlink:href="#bG"/><use transform="matrix(0.00927734375,0,0,0.00927734375,28.5,0)" xlink:href="#aC"/><use transform="matrix(0.00927734375,0,0,0.00927734375,41.1728515625,0)" xlink:href="#ay"/></g><path d="M168 0v-1409h191v1253h712V0H168" id="bH"/><g id="aq"><use transform="matrix(0.00927734375,0,0,0.00927734375,0,0)" xlink:href="#bH"/><use transform="matrix(0.00927734375,0,0,0.00927734375,10.56689453125,0)" xlink:href="#bG"/><use transform="matrix(0.00927734375,0,0,0.00927734375,25.345703125,0)" xlink:href="#bG"/><use transform="matrix(0.00927734375,0,0,0.00927734375,40.12451171875,0)" xlink:href="#bx"/></g><g id="ar"><use transform="matrix(0.00927734375,0,0,0.00927734375,0,0)" xlink:href="#bH"/><use transform="matrix(0.00927734375,0,0,0.00927734375,10.56689453125,0)" xlink:href="#aF"/><use transform="matrix(0.00927734375,0,0,0.00927734375,15.845703125,0)" xlink:href="#bx"/><use transform="matrix(0.00927734375,0,0,0.00927734375,28.5185546875,0)" xlink:href="#aC"/></g><g id="as"><use transform="matrix(0.00927734375,0,0,0.00927734375,0,0)" xlink:href="#bl"/><use transform="matrix(0.00927734375,0,0,0.00927734375,12.6728515625,0)" xlink:href="#aT"/></g><g id="at"><use transform="matrix(0.00927734375,0,0,0.00927734375,0,0)" xlink:href="#br"/><use transform="matrix(0.00927734375,0,0,0.00927734375,13.72119140625,0)" xlink:href="#aA"/><use transform="matrix(0.00927734375,0,0,0.00927734375,26.39404296875,0)" xlink:href="#aD"/></g><g id="au"><use transform="matrix(0.00927734375,0,0,0.00927734375,0,0)" xlink:href="#aA"/><use transform="matrix(0.00927734375,0,0,0.00927734375,12.6728515625,0)" xlink:href="#aD"/><use transform="matrix(0.00927734375,0,0,0.00927734375,26.39404296875,0)" xlink:href="#ay"/><use transform="matrix(0.00927734375,0,0,0.00927734375,39.06689453125,0)" xlink:href="#by"/><use transform="matrix(0.00927734375,0,0,0.00927734375,57,0)" xlink:href="#aC"/><use transform="matrix(0.00927734375,0,0,0.00927734375,69.6728515625,0)" xlink:href="#aB"/></g><g id="av"><use transform="matrix(0.00927734375,0,0,0.00927734375,0,0)" xlink:href="#aA"/><use transform="matrix(0.00927734375,0,0,0.00927734375,12.6728515625,0)" xlink:href="#bn"/><use transform="matrix(0.00927734375,0,0,0.00927734375,27.45166015625,0)" xlink:href="#aA"/><use transform="matrix(0.00927734375,0,0,0.00927734375,40.12451171875,0)" xlink:href="#aF"/><use transform="matrix(0.00927734375,0,0,0.00927734375,45.4033203125,0)" xlink:href="#aD"/></g><g id="aw"><use transform="matrix(0.00927734375,0,0,0.00927734375,0,0)" xlink:href="#aA"/><use transform="matrix(0.00927734375,0,0,0.00927734375,12.6728515625,0)" xlink:href="#aN"/><use transform="matrix(0.00927734375,0,0,0.00927734375,24.27880859375,0)" xlink:href="#az"/><use transform="matrix(0.00927734375,0,0,0.00927734375,35.884765625,0)" xlink:href="#aC"/><use transform="matrix(0.00927734375,0,0,0.00927734375,48.5576171875,0)" xlink:href="#aB"/></g><g id="ax"><use transform="matrix(0.00927734375,0,0,0.00927734375,0,0)" xlink:href="#by"/><use transform="matrix(0.00927734375,0,0,0.00927734375,17.93310546875,0)" xlink:href="#aB"/><use transform="matrix(0.00927734375,0,0,0.00927734375,31.654296875,0)" xlink:href="#bG"/><use transform="matrix(0.00927734375,0,0,0.00927734375,46.43310546875,0)" xlink:href="#aD"/><use transform="matrix(0.00927734375,0,0,0.00927734375,60.154296875,0)" xlink:href="#bn"/></g></defs></g></svg>